<svg width="56" height="20" viewBox="0 0 56 20" fill="none" xmlns="http://www.w3.org/2000/svg">
<text fill="url(#paint0_linear_643_2389)" xml:space="preserve" style="white-space: pre" font-family="Righteous" font-size="16.4861" letter-spacing="0em"><tspan x="4.09727" y="16.0012">Tawi</tspan></text>
<path d="M46.0563 5.47012C46.4169 4.41494 47.8748 4.38298 48.3023 5.37425L48.3385 5.47072L48.8251 6.89371C48.9366 7.22005 49.1168 7.51868 49.3536 7.76946C49.5903 8.02024 49.8781 8.21733 50.1974 8.34744L50.3283 8.39628L51.7513 8.88227C52.8064 9.24284 52.8384 10.7008 51.8477 11.1283L51.7513 11.1645L50.3283 11.6511C50.0018 11.7625 49.7031 11.9427 49.4522 12.1794C49.2013 12.4161 49.0041 12.704 48.8739 13.0234L48.8251 13.1536L48.3391 14.5772C47.9785 15.6324 46.5206 15.6644 46.0937 14.6737L46.0563 14.5772L45.5703 13.1542C45.4589 12.8278 45.2787 12.529 45.042 12.2781C44.8052 12.0273 44.5174 11.8301 44.198 11.6999L44.0677 11.6511L42.6448 11.1651C41.589 10.8045 41.557 9.34655 42.5483 8.91965L42.6448 8.88227L44.0677 8.39628C44.3941 8.28477 44.6927 8.10457 44.9435 7.86783C45.1943 7.63109 45.3914 7.34333 45.5215 7.02395L45.5703 6.89371L46.0563 5.47012ZM52.0214 3.39111C52.1342 3.39111 52.2447 3.42276 52.3404 3.48244C52.4362 3.54213 52.5132 3.62748 52.5628 3.72877L52.5918 3.79932L52.8028 4.41795L53.4221 4.62899C53.5351 4.6674 53.6342 4.7385 53.7068 4.83328C53.7794 4.92807 53.8222 5.04227 53.8298 5.16142C53.8375 5.28056 53.8095 5.39929 53.7496 5.50255C53.6897 5.60581 53.6004 5.68896 53.4932 5.74145L53.4221 5.77039L52.8034 5.98143L52.5924 6.60067C52.5539 6.71368 52.4828 6.81273 52.3879 6.88526C52.2931 6.95779 52.1789 7.00055 52.0598 7.0081C51.9406 7.01566 51.8219 6.98768 51.7187 6.9277C51.6155 6.86773 51.5324 6.77846 51.4799 6.67122L51.451 6.60067L51.24 5.98203L50.6207 5.771C50.5077 5.73259 50.4086 5.66149 50.336 5.5667C50.2634 5.47192 50.2206 5.35772 50.2129 5.23857C50.2053 5.11942 50.2332 5.0007 50.2932 4.89744C50.3531 4.79417 50.4423 4.71103 50.5496 4.65854L50.6207 4.62959L51.2394 4.41856L51.4504 3.79932C51.491 3.68019 51.568 3.57677 51.6704 3.50356C51.7728 3.43036 51.8955 3.39104 52.0214 3.39111Z" fill="black"/>
<path d="M46.0563 5.47012C46.4169 4.41494 47.8748 4.38298 48.3023 5.37425L48.3385 5.47072L48.8251 6.89371C48.9366 7.22005 49.1168 7.51868 49.3536 7.76946C49.5903 8.02024 49.8781 8.21733 50.1974 8.34744L50.3283 8.39628L51.7513 8.88227C52.8064 9.24284 52.8384 10.7008 51.8477 11.1283L51.7513 11.1645L50.3283 11.6511C50.0018 11.7625 49.7031 11.9427 49.4522 12.1794C49.2013 12.4161 49.0041 12.704 48.8739 13.0234L48.8251 13.1536L48.3391 14.5772C47.9785 15.6324 46.5206 15.6644 46.0937 14.6737L46.0563 14.5772L45.5703 13.1542C45.4589 12.8278 45.2787 12.529 45.042 12.2781C44.8052 12.0273 44.5174 11.8301 44.198 11.6999L44.0677 11.6511L42.6448 11.1651C41.589 10.8045 41.557 9.34655 42.5483 8.91965L42.6448 8.88227L44.0677 8.39628C44.3941 8.28477 44.6927 8.10457 44.9435 7.86783C45.1943 7.63109 45.3914 7.34333 45.5215 7.02395L45.5703 6.89371L46.0563 5.47012ZM52.0214 3.39111C52.1342 3.39111 52.2447 3.42276 52.3404 3.48244C52.4362 3.54213 52.5132 3.62748 52.5628 3.72877L52.5918 3.79932L52.8028 4.41795L53.4221 4.62899C53.5351 4.6674 53.6342 4.7385 53.7068 4.83328C53.7794 4.92807 53.8222 5.04227 53.8298 5.16142C53.8375 5.28056 53.8095 5.39929 53.7496 5.50255C53.6897 5.60581 53.6004 5.68896 53.4932 5.74145L53.4221 5.77039L52.8034 5.98143L52.5924 6.60067C52.5539 6.71368 52.4828 6.81273 52.3879 6.88526C52.2931 6.95779 52.1789 7.00055 52.0598 7.0081C51.9406 7.01566 51.8219 6.98768 51.7187 6.9277C51.6155 6.86773 51.5324 6.77846 51.4799 6.67122L51.451 6.60067L51.24 5.98203L50.6207 5.771C50.5077 5.73259 50.4086 5.66149 50.336 5.5667C50.2634 5.47192 50.2206 5.35772 50.2129 5.23857C50.2053 5.11942 50.2332 5.0007 50.2932 4.89744C50.3531 4.79417 50.4423 4.71103 50.5496 4.65854L50.6207 4.62959L51.2394 4.41856L51.4504 3.79932C51.491 3.68019 51.568 3.57677 51.6704 3.50356C51.7728 3.43036 51.8955 3.39104 52.0214 3.39111Z" fill="url(#paint1_linear_643_2389)"/>
<defs>
<linearGradient id="paint0_linear_643_2389" x1="42.0737" y1="10" x2="0.703125" y2="10" gradientUnits="userSpaceOnUse">
<stop stop-color="#FFC757"/>
<stop offset="1" stop-color="#EB5E55"/>
</linearGradient>
<linearGradient id="paint1_linear_643_2389" x1="53.8311" y1="9.39226" x2="41.8281" y2="9.39226" gradientUnits="userSpaceOnUse">
<stop stop-color="#FFC757"/>
<stop offset="1" stop-color="#EB5E55"/>
</linearGradient>
</defs>
</svg>
