<svg width="25" height="25" viewBox="0 0 25 25" fill="none" xmlns="http://www.w3.org/2000/svg">
<path d="M12.5 0C5.4584 0 0 5.15801 0 12.125C0 15.7692 1.49346 18.9182 3.92578 21.0933C4.12988 21.276 4.25313 21.532 4.26152 21.806L4.32959 24.0296C4.35137 24.7388 5.08389 25.2003 5.73291 24.9138L8.21396 23.8184C8.42425 23.7257 8.66009 23.7084 8.88164 23.7694C10.0218 24.0829 11.2352 24.2499 12.5 24.2499C19.5416 24.2499 25 19.0919 25 12.1249C25 5.15791 19.5416 0 12.5 0Z" fill="#0099FF"/>
<path d="M4.99106 15.6713L8.66294 9.84583C9.24692 8.91908 10.4977 8.68831 11.3741 9.34554L14.2945 11.536C14.4249 11.6338 14.5836 11.6865 14.7467 11.686C14.9097 11.6855 15.0681 11.6319 15.198 11.5333L19.1421 8.53997C19.6685 8.14046 20.3558 8.77044 20.0035 9.32953L16.3316 15.1551C15.7475 16.0818 14.4966 16.3125 13.6204 15.6553L10.6999 13.4649C10.5694 13.3671 10.4107 13.3145 10.2478 13.3149C10.0848 13.3154 9.92636 13.369 9.79653 13.4675L5.8522 16.4609C5.32583 16.8603 4.63862 16.2304 4.99106 15.6713Z" fill="white"/>
</svg>
