<svg width="46" height="46" viewBox="0 0 46 46" fill="none" xmlns="http://www.w3.org/2000/svg">
<path d="M44.037 15.8723C46.7453 13.164 45.5103 10.0006 44.037 8.46229L37.537 1.96229C34.807 -0.746047 31.6653 0.488953 30.127 1.96229L26.4437 5.66729H20.832C16.7153 5.66729 14.332 7.83395 13.1187 10.3256L3.49867 19.9456V28.6123L1.96033 30.129C-0.748001 32.859 0.487 36.0006 1.96033 37.539L8.46033 44.039C9.63033 45.209 10.887 45.6423 12.0787 45.6423C13.617 45.6423 15.0253 44.884 15.8703 44.039L21.7203 38.1673H29.4987C33.182 38.1673 35.0453 35.8706 35.717 33.6173C38.1653 32.9673 39.5087 31.104 40.0503 29.284C43.4087 28.4173 44.6653 25.2323 44.6653 23.0006V16.5006H43.387L44.037 15.8723ZM40.332 23.0006C40.332 23.9756 39.9203 25.1673 38.1653 25.1673H35.9987V27.334C35.9987 28.309 35.587 29.5006 33.832 29.5006H31.6653V31.6673C31.6653 32.6423 31.2537 33.834 29.4987 33.834H19.9437L12.837 40.9406C12.1653 41.569 11.7753 41.2006 11.537 40.9623L5.05867 34.5056C4.43033 33.834 4.79867 33.444 5.037 33.2056L7.832 30.389V21.7223L12.1653 17.389V20.834C12.1653 23.4556 13.8987 27.334 18.6653 27.334C23.432 27.334 25.1653 23.4556 25.1653 20.834H40.332V23.0006ZM40.9603 12.7956L37.277 16.5006H20.832V20.834C20.832 21.809 20.4203 23.0006 18.6653 23.0006C16.9103 23.0006 16.4987 21.809 16.4987 20.834V14.334C16.4987 13.3373 16.867 10.0006 20.832 10.0006H28.2203L33.1603 5.06062C33.832 4.43229 34.222 4.80062 34.4603 5.03895L40.9387 11.4956C41.567 12.1673 41.1987 12.5573 40.9603 12.7956Z" fill="url(#paint0_linear_685_2605)"/>
<defs>
<linearGradient id="paint0_linear_685_2605" x1="45.638" y1="23.0018" x2="0.359375" y2="23.0018" gradientUnits="userSpaceOnUse">
<stop stop-color="#FFC757"/>
<stop offset="1" stop-color="#EB5E55"/>
</linearGradient>
</defs>
</svg>
