<svg width="25" height="26" viewBox="0 0 25 26" fill="none" xmlns="http://www.w3.org/2000/svg">
<path d="M19.1406 0.108398H5.85938C2.62333 0.108398 0 2.74714 0 6.0022V19.3615C0 22.6165 2.62333 25.2553 5.85938 25.2553H19.1406C22.3767 25.2553 25 22.6165 25 19.3615V6.0022C25 2.74714 22.3767 0.108398 19.1406 0.108398Z" fill="url(#paint0_radial_1023_2668)"/>
<path d="M19.1406 0.108398H5.85938C2.62333 0.108398 0 2.74714 0 6.0022V19.3615C0 22.6165 2.62333 25.2553 5.85938 25.2553H19.1406C22.3767 25.2553 25 22.6165 25 19.3615V6.0022C25 2.74714 22.3767 0.108398 19.1406 0.108398Z" fill="url(#paint1_radial_1023_2668)"/>
<path d="M12.5009 2.8584C9.84873 2.8584 9.51582 2.87009 8.47422 2.91773C7.43457 2.96567 6.7249 3.13118 6.104 3.37411C5.46162 3.62499 4.9168 3.96064 4.37402 4.5068C3.83076 5.05286 3.49707 5.60088 3.24688 6.24674C3.00469 6.87149 2.83994 7.58562 2.79316 8.63089C2.74658 9.67871 2.73438 10.0137 2.73438 12.6815C2.73438 15.3493 2.74609 15.6831 2.79336 16.7308C2.84121 17.7766 3.00576 18.4904 3.24707 19.115C3.49668 19.7611 3.83037 20.3092 4.37334 20.8551C4.91602 21.4016 5.46084 21.738 6.10273 21.9889C6.72412 22.2318 7.43389 22.3973 8.47334 22.4453C9.51504 22.4929 9.84766 22.5046 12.4997 22.5046C15.1521 22.5046 15.484 22.4929 16.5256 22.4453C17.5652 22.3973 18.2757 22.2318 18.8971 21.9889C19.5392 21.738 20.0832 21.4016 20.6258 20.8551C21.169 20.3092 21.5026 19.7611 21.7529 19.1153C21.993 18.4904 22.1578 17.7764 22.2066 16.731C22.2534 15.6833 22.2656 15.3493 22.2656 12.6815C22.2656 10.0137 22.2534 9.6789 22.2066 8.63108C22.1578 7.58533 21.993 6.87159 21.7529 6.24704C21.5026 5.60088 21.169 5.05286 20.6258 4.5068C20.0826 3.96044 19.5394 3.62479 18.8965 3.3742C18.2739 3.13118 17.5639 2.96557 16.5242 2.91773C15.4825 2.87009 15.1509 2.8584 12.4979 2.8584H12.5009ZM11.6248 4.6286C11.8849 4.62821 12.175 4.6286 12.5009 4.6286C15.1084 4.6286 15.4174 4.63803 16.4471 4.68508C17.3992 4.72889 17.916 4.88891 18.2603 5.02339C18.716 5.20138 19.0409 5.41425 19.3825 5.75815C19.7243 6.10195 19.9358 6.42935 20.1133 6.88779C20.247 7.23356 20.4062 7.7534 20.4496 8.71114C20.4964 9.74668 20.5065 10.0577 20.5065 12.6792C20.5065 15.3008 20.4964 15.6119 20.4496 16.6473C20.4061 17.6051 20.247 18.1249 20.1133 18.4708C19.9363 18.9292 19.7243 19.2556 19.3825 19.5992C19.0407 19.9431 18.7162 20.1558 18.2603 20.3339C17.9164 20.469 17.3992 20.6286 16.4471 20.6724C15.4176 20.7195 15.1084 20.7297 12.5009 20.7297C9.89326 20.7297 9.58418 20.7195 8.55478 20.6724C7.60264 20.6282 7.08584 20.4682 6.74131 20.3337C6.28564 20.1556 5.96006 19.9429 5.61826 19.5991C5.27646 19.2552 5.06494 18.9286 4.8875 18.47C4.75381 18.1241 4.59453 17.6043 4.55117 16.6466C4.50439 15.611 4.49502 15.3 4.49502 12.6768C4.49502 10.0536 4.50439 9.74422 4.55117 8.70868C4.59473 7.75094 4.75381 7.23111 4.8875 6.88485C5.06455 6.42641 5.27646 6.09901 5.61836 5.7552C5.96025 5.4114 6.28564 5.19853 6.74141 5.02015C7.08564 4.88508 7.60264 4.72546 8.55478 4.68145C9.45566 4.64049 9.80479 4.62821 11.6248 4.62615V4.6286ZM17.7138 6.25961C17.0668 6.25961 16.5419 6.78711 16.5419 7.43798C16.5419 8.08875 17.0668 8.61674 17.7138 8.61674C18.3607 8.61674 18.8856 8.08875 18.8856 7.43798C18.8856 6.78721 18.3607 6.25922 17.7138 6.25922V6.25961ZM12.5009 7.6369C9.73135 7.6369 7.48584 9.8956 7.48584 12.6815C7.48584 15.4674 9.73135 17.725 12.5009 17.725C15.2705 17.725 17.5152 15.4674 17.5152 12.6815C17.5152 9.8957 15.2703 7.6369 12.5007 7.6369H12.5009ZM12.5009 9.4071C14.2986 9.4071 15.7562 10.873 15.7562 12.6815C15.7562 14.4898 14.2986 15.9559 12.5009 15.9559C10.7031 15.9559 9.2457 14.4898 9.2457 12.6815C9.2457 10.873 10.703 9.4071 12.5009 9.4071Z" fill="white"/>
<defs>
<radialGradient id="paint0_radial_1023_2668" cx="0" cy="0" r="1" gradientUnits="userSpaceOnUse" gradientTransform="translate(6.64062 27.1921) rotate(-90) scale(24.9224 23.0444)">
<stop stop-color="#FFDD55"/>
<stop offset="0.1" stop-color="#FFDD55"/>
<stop offset="0.5" stop-color="#FF543E"/>
<stop offset="1" stop-color="#C837AB"/>
</radialGradient>
<radialGradient id="paint1_radial_1023_2668" cx="0" cy="0" r="1" gradientUnits="userSpaceOnUse" gradientTransform="translate(-4.1876 1.91986) rotate(78.7454) scale(11.138 45.6634)">
<stop stop-color="#3771C8"/>
<stop offset="0.128" stop-color="#3771C8"/>
<stop offset="1" stop-color="#6600FF" stop-opacity="0"/>
</radialGradient>
</defs>
</svg>
