<svg width="10" height="10" viewBox="0 0 10 10" fill="none" xmlns="http://www.w3.org/2000/svg">
<path d="M6.91771 2.425C6.63295 2.0998 6.476 1.68225 6.47604 1.25H5.18854V6.41667C5.17882 6.69633 5.06084 6.96128 4.8595 7.15562C4.65816 7.34997 4.38921 7.4585 4.10937 7.45833C3.51771 7.45833 3.02604 6.975 3.02604 6.375C3.02604 5.65833 3.71771 5.12083 4.43021 5.34167V4.025C2.99271 3.83333 1.73438 4.95 1.73438 6.375C1.73438 7.7625 2.88437 8.75 4.10521 8.75C5.41354 8.75 6.47604 7.6875 6.47604 6.375V3.75417C6.99812 4.1291 7.62494 4.33027 8.26771 4.32917V3.04167C8.26771 3.04167 7.48437 3.07917 6.91771 2.425Z" fill="url(#paint0_linear_996_2502)"/>
<defs>
<linearGradient id="paint0_linear_996_2502" x1="8.26771" y1="5" x2="1.73438" y2="5" gradientUnits="userSpaceOnUse">
<stop stop-color="#FFC757"/>
<stop offset="1" stop-color="#EB5E55"/>
</linearGradient>
</defs>
</svg>
