<svg width="185" height="202" viewBox="0 0 185 202" fill="none" xmlns="http://www.w3.org/2000/svg">
<g filter="url(#filter0_f_993_2353)">
<ellipse cx="68.6432" cy="72.4291" rx="14.4948" ry="14.4945" fill="#EB5E55"/>
<ellipse cx="109.823" cy="136.505" rx="14.4948" ry="14.4945" fill="#EB5E55"/>
<ellipse cx="124.526" cy="79.5731" rx="14.4948" ry="14.4945" fill="#FFC758"/>
<ellipse cx="136.51" cy="101.001" rx="14.4948" ry="14.4945" fill="#EB5E55"/>
<ellipse cx="114.237" cy="65.4945" rx="14.4948" ry="14.4945" fill="#EB5E55"/>
<ellipse cx="65.4948" cy="101.001" rx="14.4948" ry="14.4945" fill="#FFC758"/>
<ellipse cx="65.4948" cy="101.001" rx="14.4948" ry="14.4945" fill="#FFC758"/>
<ellipse cx="95.1198" cy="72.4291" rx="14.4948" ry="14.4945" fill="#FFC758"/>
<ellipse cx="95.1198" cy="72.4291" rx="14.4948" ry="14.4945" fill="#FFC758"/>
<ellipse cx="124.526" cy="122.429" rx="14.4948" ry="14.4945" fill="#FFC758"/>
<ellipse cx="124.526" cy="122.429" rx="14.4948" ry="14.4945" fill="#FFC758"/>
<ellipse cx="93.6469" cy="129.57" rx="13.0453" ry="13.045" fill="#FFC758"/>
<ellipse cx="93.6469" cy="129.57" rx="13.0453" ry="13.045" fill="#FFC758"/>
<ellipse cx="68.6432" cy="128.143" rx="14.4948" ry="14.4945" fill="#EB5E55"/>
</g>
<g filter="url(#filter1_d_993_2353)">
<ellipse cx="101.445" cy="101.444" rx="44.4451" ry="44.4443" fill="url(#paint0_linear_993_2353)"/>
</g>
<g clip-path="url(#clip0_993_2353)">
<path d="M91.234 113.366V113.705C91.234 114.162 90.8686 114.528 90.4119 114.528H87.4106C86.9669 114.528 86.6016 114.162 86.6016 113.705V113.366C86.6016 112.909 86.9669 112.543 87.4106 112.543H88.3371C87.6194 112.308 87.1235 111.63 87.1235 110.846C87.1235 109.867 87.9326 109.058 88.9243 109.058C89.916 109.058 90.712 109.867 90.712 110.846C90.712 111.63 90.2162 112.295 89.5115 112.543H90.425C90.8817 112.543 91.2471 112.909 91.2471 113.366H91.234Z" fill="white"/>
<path d="M111.929 113.366V113.705C111.929 114.162 111.564 114.528 111.107 114.528H108.106C107.662 114.528 107.297 114.162 107.297 113.705V113.366C107.297 112.909 107.662 112.543 108.106 112.543H109.032C108.315 112.308 107.819 111.63 107.819 110.846C107.819 109.867 108.628 109.058 109.62 109.058C110.611 109.058 111.407 109.867 111.407 110.846C111.407 111.63 110.911 112.295 110.207 112.543H111.12C111.577 112.543 111.942 112.909 111.942 113.366H111.929Z" fill="white"/>
<path d="M131.766 90.6384C134.219 83.1323 123.714 83.7328 123.714 83.7328C123.741 83.6414 124.289 82.819 124.315 82.7146C124.419 82.1533 124.967 79.0856 122.814 76.8272C122.031 76.0178 121.222 75.6262 121.026 75.5479C119.421 74.8038 116.668 74.4644 112.296 76.8794C104.323 81.3178 99.3647 82.2969 95.6849 82.1402C92.3704 81.9966 91.1438 80.7434 85.5196 80.5084C82.2965 80.3779 80.8219 80.6912 79.5431 81.3178C76.1242 83.0148 75.1847 86.4611 75.1064 86.7614C74.5583 88.8761 75.015 91.1475 76.2417 93.1317C76.2808 93.197 76.32 93.2623 76.3722 93.3276C76.4504 93.432 76.5287 93.5364 76.607 93.6539C77.5205 94.7243 79.0342 95.2204 80.313 95.2204C81.8658 95.2204 83.5231 94.6721 85.5326 93.4973C86.0024 93.2231 86.6027 93.3928 86.8637 93.8497C87.1246 94.3066 86.9811 94.9202 86.5113 95.1943C84.1886 96.5389 82.2182 97.1785 80.313 97.1785H80.2869C80.1434 97.1785 80.0129 97.1655 79.8824 97.1524C79.6866 97.296 79.5039 97.4396 79.3343 97.5832C75.276 101.147 73.7362 105.781 74.0364 110.376C74.5453 109.097 75.263 107.661 76.2156 106.068C76.9985 104.763 79.9998 100.377 86.0024 98.5753C89.4865 97.531 92.5661 98.3142 94.0798 98.8755C95.9198 99.5413 97.1725 100.808 98.0859 101.734C98.5296 102.178 99.1298 102.792 99.3517 102.792C99.5735 102.792 100.174 102.178 100.604 101.734C101.531 100.808 102.784 99.5413 104.61 98.8755C106.137 98.3142 109.217 97.531 112.701 98.5753C118.704 100.377 121.705 104.763 122.475 106.068C123.414 107.661 124.145 109.084 124.654 110.363C124.811 107.974 124.471 105.572 123.519 103.314C123.532 103.314 123.558 103.314 123.571 103.314C122.644 101.291 121.065 99.5544 119.121 98.497C118.651 98.2359 118.469 97.6485 118.73 97.1655C118.991 96.6955 119.578 96.5128 120.061 96.7738C122.644 98.1706 124.68 100.56 125.711 103.314C126.833 103.196 127.968 102.883 128.999 102.23C129.56 101.865 130.213 101.33 130.813 100.533C130.944 100.22 131.7 98.1967 130.5 96.1733C129.521 94.5416 127.603 93.5234 125.515 93.4973C130.565 93.8106 131.766 90.6254 131.766 90.6254V90.6384Z" fill="white"/>
<path d="M93.6248 100.103C92.2546 99.5935 89.4752 98.9017 86.3695 99.8285C80.8105 101.486 78.0441 105.533 77.3264 106.734C75.356 110.05 74.6775 112.165 74.5078 113.509C75.3299 116.864 77.0785 120.062 79.4926 122.66C85.978 129.657 96.2738 130.192 99.3403 130.179C102.42 130.192 112.69 129.657 119.188 122.66C121.602 120.062 123.364 116.851 124.186 113.483C124.016 112.139 123.325 110.024 121.354 106.734C120.65 105.533 117.883 101.486 112.324 99.8285C109.205 98.9017 106.439 99.5935 105.069 100.103C103.503 100.664 102.42 101.774 101.546 102.661C100.737 103.458 100.123 104.058 99.3403 104.097C98.5835 104.045 97.9441 103.458 97.1481 102.661C96.2738 101.774 95.1776 100.664 93.6248 100.103ZM92.5939 114.749C92.5939 115.115 92.5417 115.467 92.4373 115.807H85.2603C85.1951 115.598 85.1559 115.389 85.1298 115.167C85.1168 115.037 85.1037 114.893 85.1037 114.749V108.901C85.1037 106.825 86.8131 105.585 88.888 105.585C89.1359 105.585 89.3708 105.585 89.6057 105.585C88.9923 104.645 88.1572 104.267 86.9306 104.306C83.7727 104.424 83.2246 107.687 83.1985 107.831C83.1202 108.366 82.6113 108.731 82.0894 108.653C81.5543 108.575 81.189 108.079 81.2673 107.543C81.5282 105.807 83.0289 102.505 86.8653 102.361C91.3412 102.152 92.2024 106.395 92.5156 107.974C92.5156 108.026 92.5156 108.079 92.5156 108.131C92.5678 108.379 92.5939 108.64 92.5939 108.901V114.749ZM105.956 108.94C105.956 108.679 105.982 108.418 106.035 108.17C106.035 108.118 106.035 108.066 106.035 108.013C106.361 106.434 107.209 102.204 111.685 102.4C115.521 102.544 117.022 105.859 117.27 107.583C117.348 108.118 116.983 108.614 116.448 108.692C115.913 108.757 115.417 108.405 115.339 107.87C115.312 107.713 114.751 104.476 111.606 104.358C110.38 104.306 109.545 104.698 108.931 105.638C109.166 105.638 109.401 105.638 109.649 105.638C111.724 105.638 113.433 106.878 113.433 108.953V114.802C113.433 114.945 113.42 115.089 113.407 115.219C113.381 115.441 113.342 115.65 113.277 115.859H106.1C105.995 115.52 105.943 115.167 105.943 114.802V108.953L105.956 108.94ZM99.7579 114.554C101.65 115.141 103.112 115.598 104.925 119.096C105.095 119.41 105.03 119.775 104.769 120.049C104.129 120.715 102.72 122.06 99.9014 123.3C99.5621 123.443 99.1315 123.443 98.7922 123.3C95.9606 122.06 94.5643 120.715 93.9249 120.049C93.6639 119.788 93.5987 119.423 93.7683 119.096C95.5822 115.585 97.0437 115.141 98.9358 114.554C99.1968 114.475 99.4969 114.475 99.7579 114.554Z" fill="white"/>
</g>
<defs>
<filter id="filter0_f_993_2353" x="0.438118" y="0.438118" width="201.132" height="201.124" filterUnits="userSpaceOnUse" color-interpolation-filters="sRGB">
<feFlood flood-opacity="0" result="BackgroundImageFix"/>
<feBlend mode="normal" in="SourceGraphic" in2="BackgroundImageFix" result="shape"/>
<feGaussianBlur stdDeviation="25.2809" result="effect1_foregroundBlur_993_2353"/>
</filter>
<filter id="filter1_d_993_2353" x="36.4007" y="36.4002" width="130.089" height="130.087" filterUnits="userSpaceOnUse" color-interpolation-filters="sRGB">
<feFlood flood-opacity="0" result="BackgroundImageFix"/>
<feColorMatrix in="SourceAlpha" type="matrix" values="0 0 0 0 0 0 0 0 0 0 0 0 0 0 0 0 0 0 127 0" result="hardAlpha"/>
<feMorphology radius="1.87266" operator="dilate" in="SourceAlpha" result="effect1_dropShadow_993_2353"/>
<feOffset/>
<feGaussianBlur stdDeviation="9.36331"/>
<feComposite in2="hardAlpha" operator="out"/>
<feColorMatrix type="matrix" values="0 0 0 0 0 0 0 0 0 0 0 0 0 0 0 0 0 0 0.13 0"/>
<feBlend mode="normal" in2="BackgroundImageFix" result="effect1_dropShadow_993_2353"/>
<feBlend mode="normal" in="SourceGraphic" in2="effect1_dropShadow_993_2353" result="shape"/>
</filter>
<linearGradient id="paint0_linear_993_2353" x1="130.334" y1="132.555" x2="69.2235" y2="66.9985" gradientUnits="userSpaceOnUse">
<stop stop-color="#FFC757"/>
<stop offset="1" stop-color="#EB5E55"/>
</linearGradient>
<clipPath id="clip0_993_2353">
<rect width="58.1469" height="55.1796" fill="white" transform="translate(74 74.9998)"/>
</clipPath>
</defs>
</svg>
