<svg width="98" height="100" viewBox="0 0 98 100" fill="none" xmlns="http://www.w3.org/2000/svg">
<path d="M67.6059 3.23073C67.4523 6.32367 59.1248 10.3856 57.0045 12.4299C57.0045 12.5626 55.2376 12.6556 52.5181 12.7485C43.238 13.0272 22.7727 13.1069 22.7727 13.5715C22.7727 17.4343 19.6845 20.66 15.5361 21.5361C15.0444 21.6556 14.5374 21.722 13.9997 21.7618H13.9843C13.7385 21.7751 13.4926 21.7883 13.2468 21.7883C12.1559 21.8149 11.1726 21.6954 10.2661 21.4432C10.2354 21.4432 10.1893 21.4299 10.1586 21.4167C2.1691 19.2264 1.37015 7.71748 10.6041 5.71305L63.2732 0.0448804C65.501 -0.286979 67.6366 1.26612 67.6059 3.23073Z" fill="#1C75BC"/>
<path d="M69.4363 27.8148C69.4363 29.7264 67.6387 31.2795 65.4262 31.2795C64.7041 31.2795 64.0127 31.1069 63.4289 30.8149L63.1677 30.6688C60.6018 29.275 58.0513 27.8812 55.4855 26.4741C45.2221 20.8723 34.9587 15.2705 24.6953 9.66875C36.0803 9.25725 47.4653 8.85902 58.8503 8.44751L68.622 25.7175C69.2673 26.8193 69.4363 27.0317 69.4363 27.8148Z" fill="#1C75BC"/>
<path d="M74.2425 17.382C74.2579 19.2404 72.2759 20.7139 70.1556 20.4086C61.3672 20.236 34.4488 15.9351 25.4453 14.5413L44.0976 3.45716L51.1038 2.47485C55.4673 4.46601 68.3733 12.2714 72.6139 14.82C73.5818 15.3643 74.2271 16.3068 74.2271 17.382H74.2425Z" fill="#1C75BC"/>
<path d="M94.9558 99.9997H16.3672C15.0919 99.9997 14.0625 99.1103 14.0625 98.0085C14.0625 96.9067 15.0919 96.0173 16.3672 96.0173H94.9558C96.2311 96.0173 97.2605 96.9067 97.2605 98.0085C97.2605 99.1103 96.2311 99.9997 94.9558 99.9997Z" fill="#E6E7E8"/>
<path d="M43.0551 86.4075H46.1433C51.7513 86.4075 56.2838 90.3367 56.2838 95.1686V95.527C56.2838 95.8057 56.0226 96.0447 55.6846 96.0447H33.0836C32.7609 96.0447 32.4844 95.819 32.4844 95.527C32.4844 90.496 37.2166 86.4075 43.0397 86.4075H43.0551Z" fill="#F7941D"/>
<path d="M93.6659 95.1818V95.527C93.6659 95.819 93.4047 96.0447 93.0821 96.0447H82.6036C81.4205 92.8588 80.2221 89.6863 79.0391 86.5004C79.5 86.434 79.9609 86.4075 80.4372 86.4075H83.5255C89.1334 86.4075 93.6659 90.3367 93.6659 95.1818Z" fill="#1C75BC"/>
<path d="M82.8317 96.031C78.5297 96.0443 70.9089 96.031 66.6069 96.031C52.5024 95.6859 45.3119 91.8098 39.5964 89.4602C32.7592 86.6593 27.8887 83.5 24.5239 80.938C19.2693 76.9292 14.0608 72.7876 12.3093 66.1371C11.6179 63.5088 11.5411 60.5884 12.34 57.3096C16.3808 43.4246 37.4607 35.8449 60.0156 34.9954C63.7799 45.0441 67.5441 55.1592 71.3084 65.2743C73.8896 72.1769 76.4708 79.0929 79.0521 85.9956C80.2351 89.1814 81.664 92.8452 82.847 96.031H82.8317Z" fill="#FFDF82"/>
<path d="M53.5316 86.4075H56.6199C62.2278 86.4075 66.7603 90.3367 66.7603 95.1686V95.527C66.7603 95.8057 66.4991 96.0447 66.1611 96.0447H43.5601C43.2375 96.0447 42.9609 95.819 42.9609 95.527C42.9609 90.496 47.6932 86.4075 53.5163 86.4075H53.5316Z" fill="#F7941D"/>
<path d="M81.7736 88.3847C81.7582 89.9112 80.0681 91.013 78.3473 90.6546C60.663 87.0307 32.7306 72.2297 38.5383 52.1456C41.7033 38.6853 57.6208 33.0172 59.0343 32.5393C65.472 39.0172 71.3719 49.265 75.551 59.9908C75.9966 61.1058 76.4114 62.2209 76.7955 63.3492C79.9452 72.2297 81.8197 81.2032 81.7736 88.3847Z" fill="#EF4136"/>
<path d="M54.0078 52.8884C56.5583 59.1539 67.9586 59.1539 70.5091 52.8884H54.0078Z" fill="#F15A29"/>
<path d="M44.4219 59.9905C46.9724 66.256 58.3727 66.256 60.9232 59.9905H44.4219Z" fill="#F15A29"/>
<path d="M76.7959 63.3489C72.4171 66.3091 65.2265 64.4241 63.3828 59.9905H75.5514C75.9969 61.1055 76.4118 62.2206 76.7959 63.3489Z" fill="#F15A29"/>
<path d="M58.9678 32.355L39.3475 41.833L14.6109 52.3994C14.9643 52.0011 22.585 42.5498 15.3484 37.7179C15.2869 37.6781 15.2254 37.625 15.1486 37.5851L13.9963 21.7621L13.9041 20.5806L13.9809 21.7621L15.0103 37.4657L10.0938 21.4966C10.0938 21.4966 10.2167 21.4568 10.2628 21.4435C10.232 21.4435 10.1859 21.4302 10.1552 21.4169L21.8321 6.36377L51.6697 10.1735L52.5147 12.7488L58.9678 32.355Z" fill="#FFDF82"/>
<path d="M11.0323 21.6951L10.1719 21.4163L19.3598 5.80565C29.6539 8.15521 44.3115 1.91625 54.6056 4.26582C56.8642 11.4738 56.7566 25.3323 59.0459 32.527C57.5556 33.1907 56.0038 33.9341 54.4212 34.7704C52.0551 36.0049 49.9348 37.266 48.0604 38.5005C50.3343 35.766 50.657 33.5093 50.657 32.2084C50.5955 25.85 42.3602 19.3323 29.8843 17.1287" fill="#1C75BC"/>
<path d="M15.4255 37.7575C15.994 37.7575 16.4242 37.7708 17.1002 37.7708H36.321C39.7473 37.7708 42.3899 35.0097 42.3899 32.0495V25.9167C42.3899 23.5008 41.0379 21.2442 38.7486 19.8504C36.4132 18.4433 34.1393 17.8592 32.6643 17.5273C26.9334 16.2264 21.2025 18.1645 13.7969 20.4477" fill="#FBB040"/>
<path d="M35.9996 23.4742V28.784C35.9996 30.138 34.7243 31.2265 33.1725 31.2265H25.8898C25.3521 31.2265 24.9219 30.8548 24.9219 30.3902V23.6468C24.9219 21.3503 26.7041 19.2264 29.3161 18.7751C32.8806 18.1512 36.0149 20.4875 36.0149 23.4742H35.9996Z" fill="white"/>
<mask id="mask0_1047_5846" style="mask-type:luminance" maskUnits="userSpaceOnUse" x="24" y="18" width="13" height="14">
<path d="M35.9996 23.4747V28.7845C35.9996 30.1385 34.7243 31.227 33.1725 31.227H25.8898C25.3521 31.227 24.9219 30.8553 24.9219 30.3907V23.6473C24.9219 21.3508 26.7041 19.2269 29.3161 18.7756C32.8806 18.1517 36.0149 20.488 36.0149 23.4747H35.9996Z" fill="white"/>
</mask>
<g mask="url(#mask0_1047_5846)">
<path d="M35.5843 30.2179C34.647 31.5984 32.7879 32.448 30.7599 32.1294C29.4078 31.917 28.3169 31.1736 27.6562 30.1648C28.5627 29.1294 29.9916 28.4524 31.6049 28.4524C33.2181 28.4524 34.6931 29.1427 35.5843 30.2046V30.2179Z" fill="white"/>
<path d="M31.609 28.4518C33.2377 28.4518 34.6973 29.1421 35.5884 30.2041C35.9879 29.62 36.2184 28.9297 36.2184 28.1996V24.0182C36.2184 22.0536 34.6819 20.2085 32.4234 19.8633C29.5041 19.4253 26.9844 21.3766 26.9844 23.7925V27.9607C26.9844 28.7439 27.2148 29.5005 27.645 30.151C28.5515 29.1156 29.9804 28.4386 31.5937 28.4386L31.609 28.4518Z" fill="#3C2415"/>
<path d="M31.564 27.4436C32.7859 27.4436 33.7765 26.5878 33.7765 25.5321C33.7765 24.4764 32.7859 23.6206 31.564 23.6206C30.3421 23.6206 29.3516 24.4764 29.3516 25.5321C29.3516 26.5878 30.3421 27.4436 31.564 27.4436Z" fill="white"/>
</g>
<path d="M18.8784 35.4992C18.7401 35.6983 17.8951 36.6674 17.4802 36.8797C17.1268 37.1452 15.8823 37.8886 15.4214 37.7426C15.3907 37.7426 15.3753 37.7426 15.3446 37.716C14.561 37.4771 13.5316 37.4373 13.086 37.4505C10.0439 37.4505 6.34106 37.57 3.12991 37.5966H3.03772C1.45519 37.5567 0.195312 36.4417 0.195312 35.0744C0.195312 33.7072 1.50128 32.5523 3.11454 32.5523H8.49207C8.96324 32.5434 9.56757 32.539 10.3051 32.539H16.2357C16.4508 32.5523 16.8349 32.539 17.1729 32.4859C17.3266 32.4594 17.6492 32.4063 18.1716 32.1806C18.4482 32.0611 19.8924 31.4372 20.3226 30.1762C20.3226 30.1496 20.338 30.1098 20.3534 30.0833C20.4148 31.5965 20.1843 33.6275 18.8784 35.4992Z" fill="#F15A29"/>
<path d="M20.3578 30.0705C20.3578 30.0705 20.327 30.1501 20.327 30.1767C19.8968 31.4377 18.4526 32.0616 18.176 32.1811C17.6536 32.4068 17.331 32.4599 17.1774 32.4864C16.8393 32.5395 16.4552 32.5528 16.2401 32.5395H8.49649C8.26603 32.5661 7.92801 32.6324 7.55927 32.7784C6.96005 33.0041 6.60667 33.336 6.48376 33.4422C6.03819 33.8669 5.85382 34.3183 5.76163 34.5838H5.74627C5.777 34.6634 5.79236 34.7298 5.79236 34.8094C5.94601 36.0174 5.02415 37.2121 3.65672 37.5174C3.42625 37.5572 3.21115 37.5838 2.99605 37.5971C2.58121 37.6103 2.18174 37.6103 1.79763 37.6103H1.69008C0.752854 37.6103 0 36.9466 0 36.1369V33.8271C0 32.5793 0 32.4333 0 32.2209C0.107551 30.8271 0.476295 29.6722 0.891133 28.7829C2.87314 24.7076 7.02151 22.5837 10.0944 21.4952C10.1558 21.4687 10.2173 21.4554 10.2634 21.4421C11.9688 20.8846 13.5821 20.5129 13.7818 20.4465L15.3951 21.4288C15.3951 21.4288 15.4873 21.4952 15.5334 21.535C16.5935 22.3049 19.1133 24.4023 20.0044 27.8138C20.0351 27.9067 20.0659 28.0528 20.1119 28.2386C20.2041 28.6501 20.327 29.2873 20.3578 30.0705Z" fill="#EF4136"/>
</svg>
