<svg width="29" height="22" viewBox="0 0 29 22" fill="none" xmlns="http://www.w3.org/2000/svg">
<path d="M27.493 12.5949C26.955 12.5949 26.4446 12.2769 26.2246 11.7496C24.0309 6.50267 19.182 2.83851 14.4347 2.83851C9.68745 2.83851 4.83737 6.50386 2.64366 11.7508C2.35076 12.4514 1.54501 12.7814 0.844452 12.4885C0.143898 12.1956 -0.186056 11.3898 0.106838 10.6893C2.71658 4.44882 8.60793 0.0900879 14.4335 0.0900879C20.2591 0.0900879 26.1505 4.44882 28.7602 10.6893C29.0531 11.3898 28.7231 12.1956 28.0226 12.4885C27.8492 12.5614 27.6699 12.5949 27.493 12.5949Z" fill="url(#paint0_linear_924_2196)"/>
<path d="M14.4381 4.69434C9.82119 4.69434 6.07812 8.4374 6.07812 13.0544C6.07812 15.4525 7.08711 17.6139 8.70341 19.1382C10.2002 20.55 12.2181 21.4156 14.4381 21.4156C16.6582 21.4156 18.4837 20.6301 19.9565 19.3342C21.6983 17.8028 22.7982 15.5577 22.7982 13.0544C22.7982 8.4374 19.0551 4.69434 14.4381 4.69434ZM19.3707 16.4137C18.596 14.4471 16.6797 13.0544 14.4381 13.0544C12.1966 13.0544 10.2779 14.4483 9.50438 16.4185C8.83013 15.437 8.46909 14.2785 8.46909 13.0544C8.46909 9.76319 11.147 7.0853 14.4381 7.0853C17.7293 7.0853 20.4072 9.76319 20.4072 13.0544C20.4072 14.263 20.0402 15.4322 19.3707 16.4137Z" fill="url(#paint1_linear_924_2196)"/>
<path d="M16.6851 10.215C16.6851 11.5085 15.6355 12.557 14.342 12.557C13.0484 12.557 12 11.5085 12 10.215C12 8.92149 13.0484 7.87305 14.342 7.87305C15.6355 7.87305 16.6851 8.92149 16.6851 10.215Z" fill="url(#paint2_linear_924_2196)"/>
<defs>
<linearGradient id="paint0_linear_924_2196" x1="14.4335" y1="0.0900879" x2="14.4335" y2="12.5953" gradientUnits="userSpaceOnUse">
<stop stop-color="#EB5E55"/>
<stop offset="1" stop-color="#FFC758"/>
</linearGradient>
<linearGradient id="paint1_linear_924_2196" x1="14.4381" y1="4.69434" x2="14.4381" y2="21.4156" gradientUnits="userSpaceOnUse">
<stop stop-color="#EB5E55"/>
<stop offset="1" stop-color="#FFC758"/>
</linearGradient>
<linearGradient id="paint2_linear_924_2196" x1="14.3426" y1="7.87305" x2="14.3426" y2="12.557" gradientUnits="userSpaceOnUse">
<stop stop-color="#EB5E55"/>
<stop offset="1" stop-color="#FFC758"/>
</linearGradient>
</defs>
</svg>
