<svg width="25" height="25" viewBox="0 0 25 25" fill="none" xmlns="http://www.w3.org/2000/svg">
<circle cx="12.5" cy="12.5" r="12.5" fill="white"/>
<path d="M16.0524 10.9636L18.3235 13.2347C18.692 13.5983 18.985 14.0312 19.1855 14.5085C19.386 14.9858 19.4901 15.4981 19.4919 16.0158C19.4936 16.5335 19.3929 17.0465 19.1956 17.5251C18.9983 18.0038 18.7082 18.4387 18.3421 18.8048C17.976 19.1708 17.5412 19.4609 17.0625 19.6582C16.5839 19.8555 16.0709 19.9562 15.5532 19.9545C15.0355 19.9528 14.5232 19.8486 14.0459 19.6481C13.5686 19.4476 13.1357 19.1546 12.772 18.7861L12.0155 18.0295C11.9132 17.9308 11.8316 17.8127 11.7754 17.6821C11.7192 17.5515 11.6896 17.4111 11.6883 17.2689C11.687 17.1268 11.714 16.9858 11.7678 16.8542C11.8216 16.7226 11.901 16.603 12.0015 16.5024C12.102 16.4019 12.2215 16.3223 12.353 16.2684C12.4846 16.2145 12.6255 16.1874 12.7677 16.1886C12.9098 16.1897 13.0503 16.2192 13.181 16.2752C13.3116 16.3313 13.4298 16.4128 13.5286 16.515L14.2866 17.2723C14.6218 17.6044 15.0749 17.7903 15.5467 17.7892C16.0186 17.7881 16.4709 17.6001 16.8045 17.2664C17.1381 16.9327 17.326 16.4804 17.3269 16.0085C17.3279 15.5366 17.1419 15.0836 16.8096 14.7485L14.5385 12.4774C14.2931 12.2318 13.9813 12.0632 13.6414 11.9922C13.3015 11.9212 12.9483 11.9509 12.625 12.0777C12.5099 12.1234 12.4019 12.17 12.301 12.2176L11.9698 12.3725C11.5273 12.5723 11.1868 12.658 10.7536 12.2254C10.1312 11.6031 10.2925 11.0285 11.0512 10.5053C11.807 9.98529 12.7211 9.74637 13.6347 9.83008C14.5483 9.91378 15.4037 10.3148 16.0524 10.9636ZM11.7628 6.67402L12.5194 7.43058C12.7145 7.63241 12.8225 7.90279 12.8202 8.1835C12.8179 8.46421 12.7055 8.73279 12.5071 8.93138C12.3086 9.12997 12.0402 9.24269 11.7595 9.24526C11.4788 9.24783 11.2083 9.14005 11.0063 8.94512L10.249 8.18857C10.0844 8.0181 9.88758 7.88211 9.66992 7.78853C9.45225 7.69496 9.21812 7.64567 8.9812 7.64354C8.74427 7.64141 8.5093 7.6865 8.28999 7.77615C8.07068 7.86581 7.87141 7.99824 7.70383 8.16573C7.53625 8.33322 7.4037 8.53241 7.31392 8.75167C7.22414 8.97093 7.17893 9.20588 7.18092 9.4428C7.18291 9.67973 7.23206 9.91388 7.32552 10.1316C7.41897 10.3493 7.55485 10.5463 7.72522 10.7109L9.99633 12.982C10.2418 13.2276 10.5536 13.3962 10.8935 13.4672C11.2334 13.5382 11.5866 13.5085 11.9098 13.3817C12.025 13.336 12.133 13.2894 12.2339 13.2418L12.5651 13.0869C13.0076 12.8871 13.3487 12.8014 13.7813 13.234C14.4036 13.8563 14.2423 14.4309 13.4836 14.9541C12.7279 15.4741 11.8138 15.713 10.9002 15.6293C9.98661 15.5456 9.13119 15.1446 8.4825 14.4958L6.21139 12.2247C5.84286 11.8611 5.5499 11.4282 5.34938 10.9509C5.14885 10.4736 5.04473 9.96129 5.04299 9.44357C5.04126 8.92585 5.14195 8.4129 5.33927 7.93426C5.53659 7.45562 5.82665 7.02073 6.19273 6.65465C6.55882 6.28856 6.9937 5.99851 7.47235 5.80119C7.95099 5.60386 8.46394 5.50317 8.98166 5.5049C9.49938 5.50664 10.0116 5.61077 10.489 5.81129C10.9663 6.01182 11.3992 6.30549 11.7628 6.67402Z" fill="#2F2F2F"/>
</svg>
