<svg width="41" height="45" viewBox="0 0 41 45" fill="none" xmlns="http://www.w3.org/2000/svg">
<path d="M33.75 24.7082H32.2483L27.8317 29.1249H32.0496L35.9583 33.5415H5.04167L8.9725 29.1249H13.4996L9.08292 24.7082H7.25L0.625 31.3332V40.1665C0.625 41.3379 1.09033 42.4613 1.91861 43.2896C2.7469 44.1179 3.87029 44.5832 5.04167 44.5832H35.9583C37.1297 44.5832 38.2531 44.1179 39.0814 43.2896C39.9097 42.4613 40.375 41.3379 40.375 40.1665V31.3332L33.75 24.7082ZM31.5417 13.5561L20.6104 24.4874L12.7708 16.6699L23.7242 5.73862L31.5417 13.5561ZM22.1783 1.05695L8.11125 15.124C7.90653 15.3283 7.74411 15.571 7.63329 15.8382C7.52248 16.1053 7.46544 16.3917 7.46544 16.6809C7.46544 16.9701 7.52248 17.2565 7.63329 17.5237C7.74411 17.7908 7.90653 18.0335 8.11125 18.2378L19.0425 29.1249C19.9037 30.0303 21.295 30.0303 22.1562 29.1249L36.2012 15.124C36.406 14.9197 36.5684 14.6771 36.6792 14.4099C36.79 14.1428 36.8471 13.8564 36.8471 13.5672C36.8471 13.2779 36.79 12.9916 36.6792 12.7244C36.5684 12.4573 36.406 12.2146 36.2012 12.0103L25.27 1.07904C25.0708 0.870575 24.8317 0.704257 24.5669 0.589953C24.3022 0.47565 24.0172 0.415689 23.7288 0.413629C23.4405 0.411569 23.1547 0.467453 22.8883 0.577963C22.622 0.688474 22.3805 0.851359 22.1783 1.05695Z" fill="url(#paint0_linear_685_2627)"/>
<defs>
<linearGradient id="paint0_linear_685_2627" x1="40.375" y1="22.4984" x2="0.625" y2="22.4984" gradientUnits="userSpaceOnUse">
<stop stop-color="#FFC757"/>
<stop offset="1" stop-color="#EB5E55"/>
</linearGradient>
</defs>
</svg>
