<svg width="10" height="10" viewBox="0 0 10 10" fill="none" xmlns="http://www.w3.org/2000/svg">
<g clip-path="url(#clip0_996_2500)">
<path d="M3.2526 0.833252H6.75261C8.08594 0.833252 9.16927 1.91659 9.16927 3.24992V6.74992C9.16927 7.39086 8.91466 8.00555 8.46145 8.45876C8.00824 8.91198 7.39355 9.16659 6.75261 9.16659H3.2526C1.91927 9.16659 0.835938 8.08325 0.835938 6.74992V3.24992C0.835938 2.60898 1.09055 1.99429 1.54376 1.54108C1.99698 1.08786 2.61167 0.833252 3.2526 0.833252ZM3.16927 1.66659C2.77145 1.66659 2.38992 1.82462 2.10861 2.10593C1.82731 2.38723 1.66927 2.76876 1.66927 3.16659V6.83325C1.66927 7.66242 2.3401 8.33325 3.16927 8.33325H6.83594C7.23376 8.33325 7.6153 8.17522 7.8966 7.89391C8.17791 7.61261 8.33594 7.23108 8.33594 6.83325V3.16659C8.33594 2.33742 7.66511 1.66659 6.83594 1.66659H3.16927ZM7.19011 2.29159C7.32824 2.29159 7.46072 2.34646 7.55839 2.44413C7.65607 2.54181 7.71094 2.67429 7.71094 2.81242C7.71094 2.95055 7.65607 3.08303 7.55839 3.1807C7.46072 3.27838 7.32824 3.33325 7.19011 3.33325C7.05197 3.33325 6.9195 3.27838 6.82182 3.1807C6.72415 3.08303 6.66927 2.95055 6.66927 2.81242C6.66927 2.67429 6.72415 2.54181 6.82182 2.44413C6.9195 2.34646 7.05197 2.29159 7.19011 2.29159ZM5.00261 2.91659C5.55514 2.91659 6.08504 3.13608 6.47575 3.52678C6.86645 3.91748 7.08594 4.44739 7.08594 4.99992C7.08594 5.55245 6.86645 6.08236 6.47575 6.47306C6.08504 6.86376 5.55514 7.08325 5.00261 7.08325C4.45007 7.08325 3.92017 6.86376 3.52947 6.47306C3.13877 6.08236 2.91927 5.55245 2.91927 4.99992C2.91927 4.44739 3.13877 3.91748 3.52947 3.52678C3.92017 3.13608 4.45007 2.91659 5.00261 2.91659ZM5.00261 3.74992C4.67108 3.74992 4.35314 3.88162 4.11872 4.11604C3.8843 4.35046 3.75261 4.6684 3.75261 4.99992C3.75261 5.33144 3.8843 5.64938 4.11872 5.8838C4.35314 6.11822 4.67108 6.24992 5.00261 6.24992C5.33413 6.24992 5.65207 6.11822 5.88649 5.8838C6.12091 5.64938 6.25261 5.33144 6.25261 4.99992C6.25261 4.6684 6.12091 4.35046 5.88649 4.11604C5.65207 3.88162 5.33413 3.74992 5.00261 3.74992Z" fill="url(#paint0_linear_996_2500)"/>
</g>
<defs>
<linearGradient id="paint0_linear_996_2500" x1="9.16927" y1="4.99992" x2="0.835938" y2="4.99992" gradientUnits="userSpaceOnUse">
<stop stop-color="#FFC757"/>
<stop offset="1" stop-color="#EB5E55"/>
</linearGradient>
<clipPath id="clip0_996_2500">
<rect width="10" height="10" fill="white"/>
</clipPath>
</defs>
</svg>
