<svg width="33" height="41" viewBox="0 0 33 41" fill="none" xmlns="http://www.w3.org/2000/svg">
<path fill-rule="evenodd" clip-rule="evenodd" d="M21.0964 1.10417C21.0964 0.968796 21.0426 0.838969 20.9469 0.743248C20.8511 0.647526 20.7213 0.59375 20.5859 0.59375H6.29427C4.80519 0.59375 3.3771 1.18528 2.32416 2.23822C1.27122 3.29116 0.679688 4.71925 0.679688 6.20833V34.7917C0.679688 36.2807 1.27122 37.7088 2.32416 38.7618C3.3771 39.8147 4.80519 40.4062 6.29427 40.4062H26.7109C28.2 40.4062 29.6281 39.8147 30.681 38.7618C31.734 37.7088 32.3255 36.2807 32.3255 34.7917V14.6751C32.3255 14.5398 32.2717 14.4099 32.176 14.3142C32.0803 14.2185 31.9505 14.1647 31.8151 14.1647H22.6276C22.2215 14.1647 21.832 14.0034 21.5448 13.7162C21.2577 13.4291 21.0964 13.0396 21.0964 12.6335V1.10417ZM22.6276 21.0104C23.0337 21.0104 23.4232 21.1717 23.7104 21.4589C23.9975 21.7461 24.1589 22.1356 24.1589 22.5417C24.1589 22.9478 23.9975 23.3373 23.7104 23.6244C23.4232 23.9116 23.0337 24.0729 22.6276 24.0729H10.3776C9.97149 24.0729 9.58201 23.9116 9.29485 23.6244C9.00768 23.3373 8.84635 22.9478 8.84635 22.5417C8.84635 22.1356 9.00768 21.7461 9.29485 21.4589C9.58201 21.1717 9.97149 21.0104 10.3776 21.0104H22.6276ZM22.6276 29.1771C23.0337 29.1771 23.4232 29.3384 23.7104 29.6256C23.9975 29.9127 24.1589 30.3022 24.1589 30.7083C24.1589 31.1144 23.9975 31.5039 23.7104 31.7911C23.4232 32.0783 23.0337 32.2396 22.6276 32.2396H10.3776C9.97149 32.2396 9.58201 32.0783 9.29485 31.7911C9.00768 31.5039 8.84635 31.1144 8.84635 30.7083C8.84635 30.3022 9.00768 29.9127 9.29485 29.6256C9.58201 29.3384 9.97149 29.1771 10.3776 29.1771H22.6276Z" fill="url(#paint0_linear_685_2614)"/>
<defs>
<linearGradient id="paint0_linear_685_2614" x1="32.3255" y1="20.5" x2="0.679688" y2="20.5" gradientUnits="userSpaceOnUse">
<stop stop-color="#FFC757"/>
<stop offset="1" stop-color="#EB5E55"/>
</linearGradient>
</defs>
</svg>
